<svg width="20" height="19" viewBox="0 0 20 19" fill="none" xmlns="http://www.w3.org/2000/svg">
<circle cx="10" cy="9.5" r="9.5" fill="#DAFDD7"/>
<path d="M11.2396 5.0151C11.7156 4.53905 12.4875 4.53905 12.9635 5.0151L14.5104 6.56193C14.9864 7.03798 14.9864 7.80981 14.5104 8.28585L9.40509 13.3911C9.24354 13.5527 9.03985 13.6656 8.81723 13.7169L5.85613 14.4003C5.41724 14.5016 5.0239 14.1082 5.12519 13.6693L5.80852 10.7082C5.85989 10.4856 5.97279 10.2819 6.13434 10.1204L11.2396 5.0151Z" fill="#30C55F"/>
<path d="M5.39746 12.4935L7.03284 14.1289L6.46587 14.2597C5.7458 14.4259 5.10045 13.7805 5.26662 13.0605L5.39746 12.4935Z" fill="#30C55F"/>
</svg>
