<svg width="19" height="19" viewBox="0 0 19 19" fill="none" xmlns="http://www.w3.org/2000/svg">
<g id="Group 2692">
<circle id="Ellipse 109" cx="9.5" cy="9.5" r="9.5" fill="#DAFDD7"/>
<g id="Group 332">
<path id="Rectangle 1086" d="M10.7396 5.01528C11.2156 4.53923 11.9875 4.53923 12.4635 5.01528L14.0104 6.56211C14.4864 7.03816 14.4864 7.80999 14.0104 8.28604L8.90509 13.3913C8.74354 13.5528 8.53985 13.6657 8.31723 13.7171L5.35613 14.4005C4.91724 14.5017 4.5239 14.1084 4.62519 13.6695L5.30852 10.7084C5.35989 10.4858 5.47279 10.2821 5.63434 10.1205L10.7396 5.01528Z" fill="#30C55F"/>
<path id="Rectangle 1087" d="M4.89746 12.4941L6.53284 14.1295L5.96587 14.2604C5.2458 14.4265 4.60045 13.7812 4.76662 13.0611L4.89746 12.4941Z" fill="#30C55F"/>
</g>
</g>
</svg>
