<svg width="19" height="20" viewBox="0 0 19 20" fill="none" xmlns="http://www.w3.org/2000/svg">
<circle cx="9.5" cy="10" r="9.5" fill="#F2F2F2"/>
<path d="M8.60326 5.31702C8.97008 4.57377 10.0299 4.57377 10.3967 5.31702L11.1776 6.89928C11.3233 7.19443 11.6049 7.399 11.9306 7.44632L13.6767 7.70005C14.4969 7.81924 14.8244 8.82721 14.2309 9.40575L12.9674 10.6374C12.7317 10.8671 12.6242 11.1981 12.6798 11.5225L12.9781 13.2616C13.1182 14.0785 12.2608 14.7014 11.5271 14.3158L9.96534 13.4947C9.67402 13.3415 9.32598 13.3415 9.03466 13.4947L7.47287 14.3158C6.73924 14.7014 5.88181 14.0785 6.02192 13.2616L6.32019 11.5225C6.37583 11.1981 6.26828 10.8671 6.0326 10.6374L4.76908 9.40575C4.17556 8.82721 4.50308 7.81924 5.3233 7.70005L7.06943 7.44632C7.39514 7.399 7.67671 7.19443 7.82237 6.89928L8.60326 5.31702Z" fill="#C5C5C5"/>
</svg>
