<svg width="20" height="19" viewBox="0 0 20 19" fill="none" xmlns="http://www.w3.org/2000/svg">
<circle cx="10" cy="9.5" r="9.5" fill="#DDF1FF"/>
<path d="M9.10326 4.81699C9.47008 4.07374 10.5299 4.07374 10.8967 4.81699L11.6776 6.39925C11.8233 6.6944 12.1049 6.89897 12.4306 6.94629L14.1767 7.20002C14.9969 7.31921 15.3244 8.32718 14.7309 8.90572L13.4674 10.1373C13.2317 10.3671 13.1242 10.6981 13.1798 11.0225L13.4781 12.7615C13.6182 13.5785 12.7608 14.2014 12.0271 13.8157L10.4653 12.9946C10.174 12.8415 9.82598 12.8415 9.53466 12.9946L7.97287 13.8157C7.23924 14.2014 6.38181 13.5785 6.52192 12.7615L6.82019 11.0225C6.87583 10.6981 6.76828 10.3671 6.5326 10.1373L5.26908 8.90571C4.67556 8.32718 5.00308 7.31921 5.8233 7.20002L7.56943 6.94629C7.89514 6.89897 8.17671 6.6944 8.32237 6.39925L9.10326 4.81699Z" fill="#48B2FF"/>
</svg>
