<svg width="22" height="23" viewBox="0 0 22 23" fill="none" xmlns="http://www.w3.org/2000/svg">
<path d="M10.6452 0C6 0 3.54839 2 3.54839 6.76471V18.9412H2.12903C0.953196 18.9412 0 19.8499 0 20.9706C0 22.0913 0.953196 23 2.12903 23H19.871C21.0468 23 22 22.0913 22 20.9706C22 19.8499 21.0468 18.9412 19.871 18.9412H16.0245L21.0672 13.7164C22.5087 12.223 21.3973 9.80882 19.2683 9.80882H16.7642C16.232 9.80882 15.9541 9.20535 16.3145 8.83177L21.0672 3.90754C22.5087 2.41422 21.3973 0 19.2683 0H10.6452Z" fill="#ECECEC"/>
</svg>
