<svg width="22" height="22" viewBox="0 0 22 22" fill="none" xmlns="http://www.w3.org/2000/svg">
<rect width="22" height="22" rx="11" fill="url(#paint0_linear_4396_9870)"/>
<path d="M10.5833 6C8.91667 6 7.81818 6.93304 7.81818 8.91667V14.6364L6.71281 14.6364C6.31914 14.6364 6 14.9416 6 15.3182C6 15.6947 6.31914 16 6.71281 16H15.2872C15.6809 16 16 15.6947 16 15.3182C16 14.9416 15.6809 14.6364 15.2872 14.6364L12.8667 14.6364L15.3968 11.9336C15.9811 11.3095 15.518 10.3182 14.6421 10.3182H13.4334C13.2144 10.3182 13.0987 10.0704 13.2447 9.91432L15.3968 7.61544C15.9811 6.9913 15.518 6 14.6421 6H10.5833Z" fill="#ECECEC"/>
<defs>
<linearGradient id="paint0_linear_4396_9870" x1="20.1667" y1="17.4167" x2="2.29167" y2="3.66667" gradientUnits="userSpaceOnUse">
<stop stop-color="#25AE5F"/>
<stop offset="1" stop-color="#5EC5FE"/>
</linearGradient>
</defs>
</svg>
