<svg width="24" height="24" viewBox="0 0 24 24" fill="none" xmlns="http://www.w3.org/2000/svg">
<path fill-rule="evenodd" clip-rule="evenodd" d="M3.80674 6.20562C4.70687 5.30576 5.92755 4.80024 7.20034 4.80024C8.47313 4.80024 9.69381 5.30576 10.5939 6.20562L12.0003 7.61082L13.4067 6.20562C13.8495 5.74717 14.3792 5.38149 14.9648 5.12993C15.5504 4.87837 16.1803 4.74595 16.8176 4.74042C17.455 4.73488 18.087 4.85633 18.6769 5.09767C19.2668 5.33902 19.8028 5.69544 20.2534 6.14612C20.7041 6.59681 21.0605 7.13274 21.3019 7.72264C21.5432 8.31254 21.6647 8.9446 21.6591 9.58194C21.6536 10.2193 21.5212 10.8491 21.2696 11.4348C21.0181 12.0204 20.6524 12.55 20.1939 12.9928L12.0003 21.1876L3.80674 12.9928C2.90688 12.0927 2.40137 10.872 2.40137 9.59922C2.40137 8.32643 2.90688 7.10575 3.80674 6.20562Z" fill="#FF4040" stroke="#FF4040" stroke-width="1.5" stroke-linejoin="round"/>
</svg>
