<svg width="22" height="23" viewBox="0 0 22 23" fill="none" xmlns="http://www.w3.org/2000/svg">
<path d="M0 9.40824C0 8.81893 0.273503 8.263 0.740352 7.90337L9.84075 0.893013C10.524 0.366698 11.476 0.366699 12.1593 0.893014L21.2596 7.90337C21.7265 8.263 22 8.81893 22 9.40824V21.7336C22 22.433 21.433 23 20.7336 23H15.322C14.6225 23 14.0556 22.433 14.0556 21.7336V17.0032C14.0556 16.3038 13.4886 15.7368 12.7892 15.7368H9.21085C8.51143 15.7368 7.94444 16.3038 7.94444 17.0032V21.7336C7.94444 22.433 7.37746 23 6.67804 23H1.2664C0.566988 23 0 22.433 0 21.7336V9.40824Z" fill="#ECECEC"/>
</svg>
