<svg width="34" height="36" viewBox="0 0 34 36" fill="none" xmlns="http://www.w3.org/2000/svg">
<path d="M0 14.7276C0 13.8034 0.425969 12.9308 1.15463 12.3623L15.1546 1.43973C16.2393 0.593454 17.7607 0.593455 18.8454 1.43973L32.8454 12.3623C33.574 12.9308 34 13.8034 34 14.7276V34C34 35.1046 33.1046 36 32 36H23.7222C22.6177 36 21.7222 35.1046 21.7222 34V26.6316C21.7222 25.527 20.8268 24.6316 19.7222 24.6316H14.2778C13.1732 24.6316 12.2778 25.527 12.2778 26.6316V34C12.2778 35.1046 11.3823 36 10.2778 36H2C0.895432 36 0 35.1046 0 34V14.7276Z" fill="#D9D9D9"/>
</svg>
