<svg width="22" height="22" viewBox="0 0 22 22" fill="none" xmlns="http://www.w3.org/2000/svg">
<path d="M11.3438 10.9427C11.3438 10.6579 11.1129 10.4271 10.8281 10.4271C10.5434 10.4271 10.3125 10.6579 10.3125 10.9427C10.3125 11.2275 10.5434 11.4583 10.8281 11.4583C11.1129 11.4583 11.3438 11.2275 11.3438 10.9427Z" fill="#2B2B2B"/>
<path d="M11.3438 4.52604C11.3438 4.24127 11.1129 4.01042 10.8281 4.01042C10.5434 4.01042 10.3125 4.24127 10.3125 4.52604C10.3125 4.81081 10.5434 5.04167 10.8281 5.04167C11.1129 5.04167 11.3438 4.81081 11.3438 4.52604Z" fill="#2B2B2B"/>
<path d="M11.3438 17.3594C11.3438 17.0746 11.1129 16.8438 10.8281 16.8438C10.5434 16.8438 10.3125 17.0746 10.3125 17.3594C10.3125 17.6441 10.5434 17.875 10.8281 17.875C11.1129 17.875 11.3438 17.6441 11.3438 17.3594Z" fill="#2B2B2B"/>
<path d="M11.3438 10.9427C11.3438 10.6579 11.1129 10.4271 10.8281 10.4271C10.5434 10.4271 10.3125 10.6579 10.3125 10.9427C10.3125 11.2275 10.5434 11.4583 10.8281 11.4583C11.1129 11.4583 11.3438 11.2275 11.3438 10.9427Z" stroke="#2B2B2B" stroke-width="1.8" stroke-linecap="round" stroke-linejoin="round"/>
<path d="M11.3438 4.52604C11.3438 4.24127 11.1129 4.01042 10.8281 4.01042C10.5434 4.01042 10.3125 4.24127 10.3125 4.52604C10.3125 4.81081 10.5434 5.04167 10.8281 5.04167C11.1129 5.04167 11.3438 4.81081 11.3438 4.52604Z" stroke="#2B2B2B" stroke-width="1.8" stroke-linecap="round" stroke-linejoin="round"/>
<path d="M11.3438 17.3594C11.3438 17.0746 11.1129 16.8438 10.8281 16.8438C10.5434 16.8438 10.3125 17.0746 10.3125 17.3594C10.3125 17.6441 10.5434 17.875 10.8281 17.875C11.1129 17.875 11.3438 17.6441 11.3438 17.3594Z" stroke="#2B2B2B" stroke-width="1.8" stroke-linecap="round" stroke-linejoin="round"/>
</svg>
