<svg width="19" height="19" viewBox="0 0 19 19" fill="none" xmlns="http://www.w3.org/2000/svg">
<rect width="19" height="19" rx="9.5" fill="#DDF1FF"/>
<path d="M9.13997 5.18164C7.70058 5.18164 6.75189 5.98745 6.75189 7.70058V12.6403L5.79725 12.6403C5.45726 12.6403 5.18164 12.904 5.18164 13.2292C5.18164 13.5544 5.45726 13.818 5.79725 13.818H13.2024C13.5424 13.818 13.818 13.5544 13.818 13.2292C13.818 12.904 13.5424 12.6403 13.2024 12.6403L11.1119 12.6403L13.2971 10.3061C13.8017 9.7671 13.4017 8.91098 12.6453 8.91098H11.6014C11.4123 8.91098 11.3123 8.69695 11.4385 8.56219L13.2971 6.57679C13.8017 6.03776 13.4017 5.18164 12.6453 5.18164H9.13997Z" fill="#48B2FF"/>
</svg>
