<svg width="22" height="22" viewBox="0 0 22 22" fill="none" xmlns="http://www.w3.org/2000/svg">
<path fill-rule="evenodd" clip-rule="evenodd" d="M16.7249 1.86216C17.1316 1.96523 17.4164 2.33121 17.4164 2.75074V19.2507C17.4164 19.6148 17.2009 19.9444 16.8674 20.0904C16.5338 20.2365 16.1455 20.1713 15.878 19.9243L9.91962 14.4243C9.61155 14.1399 9.53567 13.6828 9.73536 13.3141L15.6937 2.31414C15.8935 1.94526 16.3182 1.7591 16.7249 1.86216ZM11.6869 13.5606L15.583 17.1571V6.36767L11.6869 13.5606Z" fill="#184B36"/>
<path fill-rule="evenodd" clip-rule="evenodd" d="M17.1175 2.0736C17.4287 2.35752 17.5064 2.81697 17.3057 3.18736L11.3474 14.1874C11.1504 14.5511 10.7341 14.7378 10.3314 14.6431L2.53976 12.8097C2.18432 12.7261 1.91242 12.4395 1.8476 12.0802C1.78278 11.7208 1.93742 11.3573 2.24123 11.1547L15.9912 1.98806C16.3417 1.7544 16.8064 1.78968 17.1175 2.0736ZM5.01521 11.5088L10.0691 12.698L13.9339 5.563L5.01521 11.5088Z" fill="#184B36"/>
</svg>
