<svg width="24" height="23" viewBox="0 0 24 23" fill="none" xmlns="http://www.w3.org/2000/svg">
<path d="M9.91192 18.4425C11.9336 18.4425 13.7979 17.7949 15.3232 16.7157L21.0614 22.3996C21.3277 22.6634 21.6788 22.7953 22.0541 22.7953C22.8409 22.7953 23.3978 22.1957 23.3978 21.4283C23.3978 21.0685 23.2768 20.7208 23.0104 20.469L17.3086 14.8091C18.5071 13.2503 19.2213 11.3197 19.2213 9.22123C19.2213 4.14895 15.0327 0 9.91192 0C4.80326 0 0.602539 4.13696 0.602539 9.22123C0.602539 14.2935 4.79115 18.4425 9.91192 18.4425ZM9.91192 16.4519C5.917 16.4519 2.61211 13.1783 2.61211 9.22123C2.61211 5.26414 5.917 1.99054 9.91192 1.99054C13.9068 1.99054 17.2117 5.26414 17.2117 9.22123C17.2117 13.1783 13.9068 16.4519 9.91192 16.4519Z" fill="#ECECEC"/>
</svg>
