<svg width="8" height="9" viewBox="0 0 8 9" fill="none" xmlns="http://www.w3.org/2000/svg">
<path d="M0.181178 7.3964C-0.0587605 7.63634 -0.0636572 8.06235 0.186075 8.31208C0.440704 8.56182 0.866718 8.55692 1.10176 8.32188L4.00061 5.42303L6.89457 8.31698C7.1394 8.56182 7.56052 8.56182 7.81025 8.31208C8.05999 8.05746 8.05999 7.64124 7.81515 7.3964L4.92119 4.50245L7.81515 1.6036C8.05999 1.35876 8.06488 0.937648 7.81025 0.687916C7.56052 0.438184 7.1394 0.438184 6.89457 0.683019L4.00061 3.57697L1.10176 0.683019C0.866718 0.44308 0.435807 0.433287 0.186075 0.687916C-0.0636572 0.937648 -0.0587605 1.36856 0.181178 1.6036L3.07513 4.50245L0.181178 7.3964Z" fill="#FFB422"/>
</svg>
