<svg width="95" height="21" viewBox="0 0 95 21" fill="none" xmlns="http://www.w3.org/2000/svg">
<g clip-path="url(#clip0_4490_8020)">
<path d="M68.6029 19.774C67.5717 19.3557 66.7507 18.702 66.1268 17.8195C65.5094 16.9567 65.2007 15.8585 65.2007 14.5316V3.70687C65.2007 3.57614 65.2598 3.45848 65.3715 3.33428C65.4831 3.21662 65.6145 3.13818 65.7655 3.11203L69.6998 2.30802C69.8509 2.27534 69.9822 2.30802 70.0939 2.37992C70.2055 2.45836 70.2646 2.56949 70.2646 2.70022V14.1982C70.2646 14.5054 70.3369 14.7735 70.4748 15.0153C70.6127 15.2572 70.8229 15.4402 71.0922 15.5709C71.3615 15.7017 71.6899 15.7605 72.0643 15.7409C72.6291 15.7147 73.0758 15.5317 73.4107 15.1983C73.7457 14.865 73.9165 14.4466 73.9165 13.9498V1.98119C73.9165 1.83738 73.9756 1.70665 74.0872 1.57591C74.1989 1.44518 74.3303 1.36674 74.4813 1.33406L78.4156 0.530047C78.5666 0.497363 78.698 0.530047 78.8096 0.615023C78.9213 0.706537 78.9804 0.824197 78.9804 0.97454V13.5707C78.9804 15.1199 78.6717 16.4207 78.0543 17.46C77.4369 18.4863 76.6094 19.2445 75.565 19.7217C74.5273 20.1924 73.3582 20.4211 72.0643 20.4211C70.7704 20.4211 69.6407 20.1989 68.6095 19.7675L68.6029 19.774Z" fill="#184B36"/>
<path d="M84.2808 19.5879C83.1971 19.0615 82.339 18.311 81.7113 17.3411C81.0836 16.3615 80.7698 15.2552 80.7698 14.0271V13.915C80.7698 13.7688 80.8237 13.6372 80.9365 13.5348C81.0493 13.4276 81.1817 13.3789 81.3288 13.3886L85.4283 13.5933C85.5803 13.6031 85.7078 13.6615 85.8206 13.7736C85.9334 13.8857 85.9873 14.0124 85.9873 14.1586V14.4559C85.9873 14.724 86.0658 14.9677 86.2276 15.1919C86.3845 15.4112 86.6101 15.5915 86.8994 15.7231C87.1888 15.8595 87.5222 15.9327 87.8949 15.9424C88.4539 15.9619 88.9149 15.8401 89.2679 15.5818C89.621 15.3235 89.8025 15.0067 89.8025 14.6216C89.8025 14.2366 89.675 13.9247 89.4249 13.6762C89.1699 13.4276 88.7727 13.218 88.2333 13.0475L85.7618 12.292C84.3201 11.8437 83.202 11.0736 82.4076 9.98194C81.6132 8.8805 81.216 7.61822 81.216 6.20974C81.216 5.05956 81.5053 4.05072 82.084 3.18808C82.6626 2.33519 83.4668 1.71624 84.4966 1.33122C85.5264 0.955953 86.7033 0.863354 88.0322 1.0583C89.3611 1.25325 90.5086 1.64801 91.5286 2.24747C92.5485 2.84205 93.3331 3.57797 93.8873 4.4601C94.4414 5.33248 94.716 6.27797 94.716 7.30143V7.42815C94.716 7.56461 94.662 7.67183 94.5493 7.76443C94.4365 7.85216 94.3041 7.89115 94.157 7.87652L90.1997 7.48663C90.0476 7.47201 89.9201 7.40866 89.8074 7.29169C89.6946 7.17472 89.6406 7.04801 89.6406 6.91154V6.8092C89.6406 6.46317 89.4935 6.161 89.2042 5.91245C88.9149 5.66389 88.5275 5.50794 88.0371 5.45432C87.5467 5.40071 87.1593 5.46895 86.8602 5.66877C86.5611 5.86858 86.4091 6.13663 86.4091 6.47779C86.4091 6.83357 86.5366 7.13573 86.7867 7.38429C87.0416 7.63284 87.5026 7.87652 88.1744 8.11533L90.4203 8.91948C91.9552 9.44584 93.1027 10.1866 93.8578 11.1321C94.6179 12.0679 94.9955 13.1985 94.9955 14.5339C94.9955 15.7182 94.6915 16.7466 94.0834 17.6189C93.4753 18.5011 92.6368 19.1785 91.5727 19.6512C90.5086 20.1289 89.2974 20.3725 87.9537 20.3725C86.6101 20.3725 85.3646 20.1142 84.2759 19.5976L84.2808 19.5879Z" fill="#184B36"/>
<path d="M0.170769 20.2516C0.0591123 20.1405 0 20.0098 0 19.8594V1.39988C0 1.24953 0.0591123 1.13187 0.170769 1.04036C0.282425 0.948846 0.413786 0.916163 0.564851 0.942309L10.6862 2.73336C10.8373 2.7595 10.9686 2.83141 11.0803 2.9556C11.1919 3.07326 11.251 3.204 11.251 3.33473V6.72726C11.251 6.86453 11.1919 6.96912 11.0803 7.0541C10.9686 7.13907 10.8373 7.17176 10.6862 7.15215L5.34638 6.43965C5.27413 6.42658 5.20845 6.43965 5.14934 6.47887C5.09022 6.51809 5.06395 6.57692 5.06395 6.66843V8.59021C5.06395 8.66212 5.09022 8.72748 5.14934 8.78631C5.20845 8.84514 5.27413 8.87783 5.34638 8.8909L10.4038 9.44652C10.5548 9.46613 10.6862 9.52496 10.7978 9.64262C10.9095 9.75374 10.9686 9.87794 10.9686 10.0152V13.4404C10.9686 13.5777 10.9095 13.6888 10.7978 13.7803C10.6862 13.8718 10.5548 13.9176 10.4038 13.9045L5.34638 13.5777C5.27413 13.5777 5.20845 13.5908 5.14934 13.63C5.09022 13.6692 5.06395 13.7346 5.06395 13.8261V19.8856C5.06395 20.0294 5.00484 20.1536 4.89318 20.2582C4.78153 20.3628 4.65017 20.4216 4.4991 20.4216H0.564851C0.413786 20.4216 0.282425 20.3628 0.170769 20.2516Z" fill="#184B36"/>
<path d="M10.0755 20.1863C10.0098 20.0294 10.0229 19.8529 10.1149 19.6699L19.1722 2.33461C19.2444 2.22349 19.3364 2.13197 19.4415 2.07314C19.5466 2.01431 19.6648 1.9947 19.7896 2.00778L24.9586 2.62876C25.2411 2.66144 25.3921 2.80525 25.4053 3.06018L26.5547 19.7287C26.5744 19.8986 26.5218 20.049 26.397 20.1928C26.2722 20.3366 26.1146 20.4085 25.9044 20.4085H21.714C21.5827 20.4085 21.4776 20.3758 21.3922 20.3039C21.3068 20.232 21.2674 20.1405 21.2674 20.0163L21.182 17.7219C21.182 17.5977 21.1557 17.5062 21.1098 17.4343C21.0638 17.3624 20.985 17.3297 20.8733 17.3232L17.1887 17.2513C17.077 17.2513 16.985 17.2709 16.9194 17.3101C16.8537 17.3559 16.7946 17.4343 16.7355 17.5585L15.5532 19.9967C15.481 20.1209 15.389 20.2189 15.2839 20.2908C15.1788 20.3628 15.0606 20.402 14.9358 20.402H10.4696C10.2659 20.402 10.128 20.3235 10.0623 20.1667L10.0755 20.1863ZM21.1492 12.826C21.2149 12.7671 21.2477 12.6887 21.2477 12.5841V8.47255C21.2477 8.34835 21.1886 8.28298 21.0638 8.27645C20.939 8.26991 20.8536 8.3222 20.7945 8.43986L18.9949 12.473C18.9555 12.5776 18.9555 12.6626 18.9817 12.7214C19.008 12.7867 19.0671 12.8194 19.1656 12.826L20.9062 12.9109C20.9981 12.9109 21.0769 12.8913 21.1426 12.8325L21.1492 12.826Z" fill="#184B36"/>
<path d="M29.2008 20.2504C29.0891 20.1393 29.03 20.0085 29.03 19.8582V1.39862C29.03 1.24828 29.0891 1.12408 29.2008 1.03257C29.3125 0.934521 29.4438 0.901838 29.5949 0.921448L36.1169 1.8758C37.4634 2.0719 38.6391 2.50332 39.6308 3.16353C40.6226 3.81066 41.3779 4.60813 41.8902 5.55595C42.4025 6.49069 42.6653 7.51041 42.6653 8.61511C42.6653 9.56947 42.4617 10.3931 42.0479 11.0794C41.6341 11.7723 41.0364 12.4129 40.2482 12.9881C40.0578 13.132 39.9592 13.2561 39.9527 13.3542C39.9461 13.4588 39.9855 13.6157 40.0775 13.8248L42.5536 19.5379C42.6653 19.7928 42.6784 20.002 42.593 20.1654C42.5076 20.3354 42.3237 20.4138 42.0479 20.4138H38.1399C37.9363 20.4138 37.7721 20.3811 37.6604 20.3092C37.5488 20.2373 37.4634 20.1327 37.4108 19.9955L35.0529 14.0798C35.0135 13.9883 34.9741 13.9294 34.9281 13.8967C34.8821 13.8706 34.823 13.851 34.7442 13.8444L34.3764 13.8248C34.3042 13.8248 34.2385 13.8379 34.1794 13.8837C34.1203 13.9229 34.094 13.9948 34.094 14.0798V19.8647C34.094 20.0085 34.0349 20.1327 33.9232 20.2439C33.8116 20.355 33.6802 20.4073 33.5291 20.4073H29.5949C29.4438 20.4073 29.3125 20.3484 29.2008 20.2373V20.2504ZM36.8066 9.26878C37.0233 9.16419 37.1875 9.01385 37.2992 8.81121C37.4108 8.61511 37.4699 8.37325 37.4699 8.09218C37.4699 7.67383 37.3452 7.32085 37.089 7.0267C36.8329 6.73909 36.4913 6.56913 36.0644 6.51684L34.3764 6.33381C34.3042 6.32728 34.2385 6.34035 34.1794 6.37957C34.1203 6.41879 34.094 6.48416 34.094 6.56913V8.93541C34.094 9.1119 34.1859 9.20995 34.3764 9.22956L36.0644 9.37337C36.3468 9.39951 36.5964 9.36029 36.8066 9.2557V9.26878Z" fill="#184B36"/>
<path d="M44.774 20.2514C44.6624 20.1403 44.6033 20.0096 44.6033 19.8592V1.39968C44.6033 1.24934 44.6624 1.12514 44.774 1.02709C44.8857 0.929042 45.0171 0.883285 45.1681 0.902895L50.2846 1.46505C50.4357 1.47812 50.5605 1.53042 50.6656 1.61539C50.7706 1.70037 50.8363 1.82457 50.8757 1.98798L53.5161 12.159C53.5555 12.2702 53.6277 12.3225 53.7394 12.329C53.8511 12.3355 53.9167 12.2832 53.9364 12.1787L56.5768 2.59589C56.6162 2.44555 56.6819 2.34096 56.787 2.28213C56.8921 2.2233 57.0168 2.20369 57.1679 2.21677L62.2844 2.77892C62.4355 2.79853 62.5668 2.85736 62.6785 2.97502C62.7901 3.08614 62.8493 3.21034 62.8493 3.34761V19.9181C62.8493 20.0553 62.7901 20.1665 62.6785 20.2711C62.5668 20.3691 62.4355 20.4214 62.2844 20.4214H58.6851C58.5341 20.4214 58.4027 20.3691 58.291 20.2645C58.1794 20.1599 58.1203 20.0423 58.1203 19.905V12.5055C58.1203 12.3682 58.048 12.2898 57.9101 12.2767C57.7722 12.2636 57.6868 12.3159 57.6736 12.4336L55.677 19.9769C55.6376 20.1338 55.5719 20.2514 55.4668 20.3168C55.3617 20.3887 55.2369 20.4214 55.0858 20.4214H52.3601C52.2091 20.4214 52.0843 20.3887 51.9792 20.3168C51.8741 20.2449 51.8084 20.1272 51.769 19.9704L49.7723 12.061C49.7526 11.9368 49.6738 11.8714 49.5359 11.8714C49.3979 11.8714 49.3257 11.9499 49.3257 12.0937V19.8854C49.3257 20.0292 49.2666 20.1599 49.1549 20.2645C49.0433 20.3756 48.9119 20.4279 48.7608 20.4279H45.1616C45.0105 20.4279 44.8791 20.3691 44.7675 20.258L44.774 20.2514Z" fill="#184B36"/>
</g>
<defs>
<clipPath id="clip0_4490_8020">
<rect width="95" height="20.4206" fill="white"/>
</clipPath>
</defs>
</svg>
